<?xml version="1.0" encoding="UTF-8" standalone="no"?>
<svg
   viewBox="-5 -10 218.4 218.4"
   version="1.1"
   id="svg18"
   sodipodi:docname="bruv-icon.svg"
   inkscape:version="1.4.3 (0d15f75, 2025-12-25)"
   xmlns:inkscape="http://www.inkscape.org/namespaces/inkscape"
   xmlns:sodipodi="http://sodipodi.sourceforge.net/DTD/sodipodi-0.dtd"
   xmlns:xlink="http://www.w3.org/1999/xlink"
   xmlns="http://www.w3.org/2000/svg"
   xmlns:svg="http://www.w3.org/2000/svg">
  <sodipodi:namedview
     id="namedview18"
     pagecolor="#ffffff"
     bordercolor="#000000"
     borderopacity="0.25"
     inkscape:showpageshadow="2"
     inkscape:pageopacity="0.0"
     inkscape:pagecheckerboard="0"
     inkscape:deskcolor="#d1d1d1"
     inkscape:zoom="2.7552559"
     inkscape:cx="149.53239"
     inkscape:cy="68.051755"
     inkscape:window-width="2057"
     inkscape:window-height="1197"
     inkscape:window-x="2391"
     inkscape:window-y="-4"
     inkscape:window-maximized="1"
     inkscape:current-layer="g18" />
  <defs
     id="defs4">
    <linearGradient
       id="purpleGrad"
       x1="0%"
       y1="0%"
       x2="100%"
       y2="100%">
      <stop
         offset="0%"
         stop-color="#8b5cf6"
         id="stop1" />
      <stop
         offset="100%"
         stop-color="#6d28d9"
         id="stop2" />
    </linearGradient>
    <linearGradient
       id="tealGrad"
       x1="100%"
       y1="0%"
       x2="0%"
       y2="100%">
      <stop
         offset="0%"
         stop-color="#2dd4bf"
         id="stop3" />
      <stop
         offset="100%"
         stop-color="#0d9488"
         id="stop4" />
    </linearGradient>
    <linearGradient
       inkscape:collect="always"
       xlink:href="#tealGrad"
       id="linearGradient18"
       x1="75.81186"
       y1="-262.98162"
       x2="-6.3632353"
       y2="-180.80653"
       gradientTransform="matrix(0.83652004,0,0,1.0104034,-1.6496757,-19.665541)"
       gradientUnits="userSpaceOnUse" />
    <linearGradient
       inkscape:collect="always"
       xlink:href="#tealGrad"
       id="linearGradient19"
       x1="78.03648"
       y1="-215.95151"
       x2="1.6896638"
       y2="-139.60469"
       gradientTransform="matrix(1.0488904,0,0,1.2669182,-11.960584,29.84698)"
       gradientUnits="userSpaceOnUse" />
    <linearGradient
       inkscape:collect="always"
       xlink:href="#tealGrad"
       id="linearGradient20"
       x1="199.41553"
       y1="116.25473"
       x2="60.754703"
       y2="254.91556"
       gradientTransform="scale(1.0241283,0.97644016)"
       gradientUnits="userSpaceOnUse" />
    <linearGradient
       inkscape:collect="always"
       xlink:href="#purpleGrad"
       id="linearGradient26"
       x1="-30.350981"
       y1="-350.69561"
       x2="18.348916"
       y2="-301.99571"
       gradientTransform="matrix(1.5157755,0,0,0.65972967,-65.67811,16.616154)"
       gradientUnits="userSpaceOnUse" />
    <linearGradient
       inkscape:collect="always"
       xlink:href="#purpleGrad"
       id="linearGradient27"
       x1="6.5802258"
       y1="44.340317"
       x2="192.22311"
       y2="229.9832"
       gradientTransform="scale(0.98623815,1.0139539)"
       gradientUnits="userSpaceOnUse" />
    <linearGradient
       inkscape:collect="always"
       xlink:href="#tealGrad"
       id="linearGradient29"
       x1="-138.60133"
       y1="155.13411"
       x2="-177.15081"
       y2="193.68358"
       gradientTransform="matrix(1.7409473,0,1.520924e-8,0.78057211,23.857263,-13.295864)"
       gradientUnits="userSpaceOnUse" />
    <linearGradient
       inkscape:collect="always"
       xlink:href="#tealGrad"
       id="linearGradient30"
       x1="97.827314"
       y1="311.40646"
       x2="58.090808"
       y2="351.14297"
       gradientTransform="scale(1.5101283,0.6621954)"
       gradientUnits="userSpaceOnUse" />
    <linearGradient
       inkscape:collect="always"
       xlink:href="#tealGrad"
       id="linearGradient31"
       x1="81.236942"
       y1="283.44651"
       x2="38.019947"
       y2="326.66351"
       gradientTransform="scale(1.5101283,0.6621954)"
       gradientUnits="userSpaceOnUse" />
    <linearGradient
       inkscape:collect="always"
       xlink:href="#tealGrad"
       id="linearGradient32"
       x1="56.449815"
       y1="259.99311"
       x2="13.23282"
       y2="303.21011"
       gradientTransform="scale(1.5101283,0.6621954)"
       gradientUnits="userSpaceOnUse" />
    <linearGradient
       inkscape:collect="always"
       xlink:href="#tealGrad"
       id="linearGradient33"
       x1="55.965995"
       y1="223.95124"
       x2="12.748999"
       y2="267.16824"
       gradientTransform="scale(1.5101283,0.6621954)"
       gradientUnits="userSpaceOnUse" />
    <linearGradient
       inkscape:collect="always"
       xlink:href="#tealGrad"
       id="linearGradient34"
       x1="166.67124"
       y1="152.55447"
       x2="31.689553"
       y2="287.53616"
       gradientTransform="scale(1.1394858,0.87758882)"
       gradientUnits="userSpaceOnUse" />
    <linearGradient
       inkscape:collect="always"
       xlink:href="#tealGrad"
       id="linearGradient35"
       gradientUnits="userSpaceOnUse"
       gradientTransform="scale(1.1394858,0.87758882)"
       x1="166.67124"
       y1="152.55447"
       x2="31.689553"
       y2="287.53616" />
  </defs>
  <!-- Hexagonal border -->
  <polygon
     points="104.2,189.2 26.3,144.2 26.3,54.2 104.2,9.2 182.1,54.2 182.1,144.2 "
     fill="#1e1b4b"
     stroke="#4338ca"
     stroke-width="3"
     stroke-linejoin="round"
     id="polygon4"
     transform="matrix(1.1278798,0,0,1.0884885,-13.32508,-8.7780615)"
     style="stroke-width:18.37891023;stroke-linecap:butt;stroke-dasharray:none;paint-order:stroke fill markers" />
  <!-- Hands -->
  <g
     transform="matrix(0.89111349,0,0,0.90440558,2.5407676,-44.950331)"
     id="g18">
    <!-- Teal forearm/palm -->
    <g
       fill="url(#tealGrad)"
       id="g5"
       style="fill:url(#linearGradient20)"
       transform="translate(-1.0475666,-2.7935108)">
      <rect
         width="68.741112"
         height="83.029991"
         x="-6.9726491"
         y="-285.38306"
         rx="10.009165"
         ry="8.9212122"
         transform="rotate(135)"
         id="rect4"
         style="fill:url(#linearGradient18);stroke-width:0.91936" />
      <rect
         width="80.079445"
         height="96.725166"
         x="-10.188312"
         y="-243.7459"
         rx="11.660101"
         ry="10.392698"
         transform="rotate(135)"
         id="rect5"
         style="fill:url(#linearGradient19);stroke-width:1.15276" />
    </g>
    <!-- Purple hand + fingers -->
    <g
       transform="matrix(1.0161737,0,0,1.0161737,-9.6652239,9.1436949)"
       fill="url(#purpleGrad)"
       id="g11"
       style="fill:url(#linearGradient27)">
      <path
         id="rect11"
         style="fill:url(#linearGradient26)"
         transform="matrix(-0.86670414,0.49882255,-0.49707195,-0.86770933,1.1326407e-8,8.0671189e-8)"
         d="m -93.524914,-214.74814 h 37.501175 c 10.05979,0 18.158466,7.16472 18.158466,16.06438 0,8.89967 -8.098676,16.06439 -18.158466,16.06439 h -37.501175 c -10.059786,0 -18.158466,-7.16472 -18.158466,-16.06439 0,-8.89966 8.09868,-16.06438 18.158466,-16.06438 z m -6.874276,28.45534 36.739901,-6.94151 c 9.85558,-1.86208 19.135996,3.69769 20.808108,12.46584 1.672111,8.76815 -4.916025,17.32606 -14.771606,19.18813 l -36.739902,6.94151 c -9.855581,1.86208 -19.135991,-3.69768 -20.808101,-12.46583 -1.67212,-8.76815 4.91602,-17.32606 14.7716,-19.18814 z m 8.975297,29.52912 35.290629,-12.08279 c 9.466806,-3.24124 19.431262,0.96063 22.341835,9.42125 2.91057,8.4606 -2.367553,17.88122 -11.834359,21.12246 l -35.290629,12.08278 c -9.466807,3.24124 -19.431263,-0.96063 -22.341833,-9.42124 -2.91058,-8.46061 2.36755,-17.88122 11.834357,-21.12246 z m 11.907596,30.82506 -17.471526,-64.36975 c -1.988411,-7.32583 1.664582,-14.6397 8.190569,-16.3988 l 86.0750798,-23.20184 c 6.525986,-1.75911 13.3805372,2.72242 15.3689492,10.04825 l 17.471526,64.36975 c 1.988412,7.32584 -1.664582,14.63971 -8.190568,16.39881 l -86.07508,23.20184 c -6.525987,1.7591 -13.380538,-2.72242 -15.36895,-10.04826 z m 4.626,-10.8953 32.894517,-11.85747 c 8.824043,-3.1808 17.918608,0.66976 20.391402,8.63354 2.472791,7.96378 -2.640306,16.93578 -11.464349,20.11657 l -32.894517,11.85747 c -8.824043,3.1808 -17.918611,-0.66977 -20.391402,-8.63354 -2.472795,-7.96378 2.640306,-16.93577 11.464349,-20.11657 z m 68.9556222,-24.72742 -11.2875002,-41.58615 c -1.284615,-4.73287 1.075405,-9.45801 5.291526,-10.59448 l 55.608892,-14.98957 c 4.216122,-1.13647 8.644521,1.75882 9.929137,6.49169 l 11.2875,41.58615 c 1.284615,4.73287 -1.075413,9.45801 -5.291534,10.59448 l -55.608892,14.98957 c -4.21612127,1.13647 -8.6445131,-1.75883 -9.9291288,-6.49169 z" />
    </g>
    <g
       id="g34"
       style="fill:url(#linearGradient35)"
       transform="matrix(0.72491272,0.7794059,-0.7794059,0.72491272,163.15299,-94.626409)">
      <path
         id="rect13"
         style="fill:url(#linearGradient29);stroke-width:1.16573"
         transform="matrix(-0.2800497,-0.9599855,0.86533691,-0.50119062,0,0)"
         d="m -268.04396,107.79751 h 34.09463 c 9.14598,0 16.50898,6.71021 16.50898,15.04532 0,8.33511 -7.363,15.04532 -16.50898,15.04532 h -34.09463 c -9.14598,0 -16.50899,-6.71021 -16.50899,-15.04532 0,-8.33511 7.36301,-15.04532 16.50899,-15.04532 z m 53.79331,-22.271319 1.94339,30.349839 c 0.52132,8.14143 -6.06105,16.98892 -14.7587,19.83742 -8.69763,2.8485 -16.1194,-1.41259 -16.64072,-9.55402 l -1.94339,-30.349839 c -0.52132,-8.141429 6.06106,-16.98892 14.7587,-19.83742 8.69764,-2.848504 16.1194,1.412591 16.64072,9.55402 z" />
    </g>
    <!-- Teal fingers wrapping around -->
    <g
       transform="matrix(0.67755831,0.67755831,-0.67755831,0.67755831,155.33017,-69.358038)"
       fill="url(#tealGrad)"
       id="g17"
       style="fill:url(#linearGradient34)">
      <rect
         width="60.007221"
         height="26.313332"
         x="87.724571"
         y="206.21193"
         ry="13.156666"
         rx="14.761138"
         transform="rotate(10)"
         id="rect14"
         style="fill:url(#linearGradient30)" />
      <rect
         width="65.263206"
         height="28.618095"
         x="57.414997"
         y="187.69698"
         ry="14.309048"
         rx="16.054054"
         transform="rotate(5)"
         id="rect15"
         style="fill:url(#linearGradient31)" />
      <rect
         width="65.263206"
         height="28.618095"
         x="19.983255"
         y="172.16624"
         ry="14.309048"
         rx="16.054054"
         transform="rotate(-5)"
         id="rect16"
         style="fill:url(#linearGradient32)" />
      <rect
         width="65.263206"
         height="28.618095"
         x="19.252625"
         y="148.29948"
         ry="14.309048"
         rx="16.054054"
         transform="rotate(-10)"
         id="rect17"
         style="fill:url(#linearGradient33)" />
    </g>
  </g>
</svg>
